<?xml version="1.0" encoding="UTF-8"?>
<!DOCTYPE svg PUBLIC "-//W3C//DTD SVG 1.1//EN" "http://www.w3.org/Graphics/SVG/1.1/DTD/svg11.dtd">
<!-- Creator: CorelDRAW -->
<svg xmlns="http://www.w3.org/2000/svg" xml:space="preserve" width="1200px" height="1200px" style="shape-rendering:geometricPrecision; text-rendering:geometricPrecision; image-rendering:optimizeQuality; fill-rule:evenodd; clip-rule:evenodd"
viewBox="0 0 1200 1200"
 xmlns:xlink="http://www.w3.org/1999/xlink">
 <defs>
  <style type="text/css">
   <![CDATA[
    .fil3 {fill:blue}
    .fil5 {fill:lime}
    .fil4 {fill:aqua}
    .fil8 {fill:#9900CC}
    .fil7 {fill:red}
    .fil6 {fill:yellow}
    .fil2 {fill:white;fill-opacity:0.501961}
    .fil1 {fill:white;fill-opacity:0.501961}
    .fil9 {fill:white;fill-opacity:0.670588}
    .fil0 {fill:url(#id0)}
   ]]>
  </style>
  <linearGradient id="id0" gradientUnits="userSpaceOnUse" x1="1200" y1="1200" x2="-0" y2="0">
   <stop offset="0" style="stop-color:#0074C3"/>
   <stop offset="1" style="stop-color:white"/>
  </linearGradient>
 </defs>
 <g id="Layer_x0020_1">
  <metadata id="CorelCorpID_0Corel-Layer"/>
  <rect class="fil0" width="1200" height="1200"/>
  <polygon class="fil1" points="250.322,949.678 949.678,949.678 600,250.325 "/>
  <polygon class="fil2" points="1200,577.501 760.793,571.91 432.066,586.196 -0,618.713 -0,648.188 417.509,615.307 789.265,628.854 1200,810.257 "/>
  <g id="_129440000">
   <polygon id="_129443840" class="fil3" points="760.793,571.91 765.342,581.015 1200,612.744 1200,577.501 "/>
   <polygon id="_129438944" class="fil4" points="1200,652.751 770.329,590.987 765.342,581.015 1200,612.744 "/>
   <polygon id="_129444560" class="fil5" points="770.329,590.987 774.839,600 1200,694.586 1200,652.751 "/>
   <polygon id="_129436664" class="fil6" points="774.839,600 780.187,610.698 1200,733.741 1200,694.586 "/>
   <polygon id="_129436112" class="fil7" points="780.187,610.698 784.471,619.267 1200,773.666 1200,733.741 "/>
   <polygon id="_129437936" class="fil8" points="784.177,618.682 789.265,628.854 1200,810.257 1200,773.539 "/>
  </g>
  <polygon class="fil9" points="760.793,571.91 432.066,586.196 417.509,615.307 789.265,628.854 "/>
 </g>
</svg>
